<?xml version="1.0" standalone="no"?>
<!DOCTYPE svg PUBLIC "-//W3C//DTD SVG 20010904//EN"
 "http://www.w3.org/TR/2001/REC-SVG-20010904/DTD/svg10.dtd">
<svg version="1.0" xmlns="http://www.w3.org/2000/svg"
 width="264.000000pt" height="92.000000pt" viewBox="0 0 264.000000 92.000000"
 preserveAspectRatio="xMidYMid meet">
<metadata>
Created by potrace 1.10, written by Peter Selinger 2001-2011
</metadata>
<g transform="translate(0.000000,92.000000) scale(0.100000,-0.100000)"
fill="#000000" stroke="none">
<path d="M1788 656 l2 -254 -31 -26 c-17 -15 -37 -25 -43 -23 -14 5 -20 117
-8 173 9 43 9 44 -17 44 -59 0 -147 -91 -171 -176 -14 -49 -1 -84 30 -84 23 0
83 57 105 100 9 17 17 30 19 30 2 0 1 -21 -1 -47 -2 -27 0 -54 5 -62 13 -19
53 -8 85 25 25 25 27 25 27 6 0 -28 10 -52 22 -52 6 0 7 27 3 73 l-7 73 93 -8
c50 -5 94 -6 97 -4 13 14 -17 25 -83 31 l-74 7 50 51 c36 36 46 53 37 58 -9 6
-31 -9 -66 -44 l-53 -52 3 208 c3 179 1 207 -12 207 -13 0 -15 -34 -12 -254z
m-108 -128 c0 -49 -107 -197 -131 -183 -22 14 17 103 69 158 36 37 62 48 62
25z"/>
<path d="M2007 633 c3 -285 6 -323 24 -323 7 0 8 24 4 73 l-7 73 93 -8 c50 -5
94 -6 97 -4 13 14 -17 25 -83 31 l-74 7 50 51 c36 36 46 53 37 58 -9 6 -31 -9
-66 -44 l-53 -52 3 208 c3 179 1 207 -12 207 -13 0 -15 -36 -13 -277z"/>
<path d="M10 828 c0 -35 7 -153 15 -263 8 -110 15 -212 15 -227 0 -18 5 -28
15 -28 8 0 15 7 15 15 0 8 7 15 16 15 86 0 178 198 113 243 -11 8 -29 12 -40
10 -26 -7 -79 -71 -86 -105 -3 -16 -10 -28 -15 -28 -5 0 -7 3 -5 8 3 4 -1 95
-9 202 -7 107 -13 201 -14 208 0 6 -4 12 -10 12 -6 0 -10 -27 -10 -62z m180
-334 c-15 -51 -76 -124 -105 -124 -14 0 -16 6 -10 37 10 54 44 121 73 144 23
17 27 18 40 5 13 -13 13 -21 2 -62z"/>
<path d="M657 879 c-9 -5 -27 -29 -39 -52 -19 -35 -23 -62 -26 -164 -4 -117
-5 -123 -25 -123 -32 0 -133 -109 -148 -159 -11 -36 -10 -44 4 -58 23 -24 67
-2 126 63 56 61 54 62 67 -53 3 -35 13 -71 20 -80 13 -16 14 -14 9 17 -3 19
-10 74 -15 122 -10 85 -10 89 14 125 39 59 73 150 87 236 12 73 12 78 -8 105
-23 31 -40 36 -66 21z m49 -54 c16 -62 -58 -297 -88 -279 -15 9 -1 197 18 242
27 66 58 83 70 37z m-116 -336 c0 -24 -13 -43 -59 -90 -33 -32 -64 -59 -71
-59 -40 0 2 96 67 149 48 39 63 39 63 0z"/>
<path d="M1212 641 l5 -70 -51 -3 c-37 -2 -51 -7 -51 -18 0 -12 11 -14 53 -12
l52 4 0 -61 c0 -92 17 -159 47 -178 22 -15 27 -15 59 0 19 9 34 24 34 34 0 14
-4 13 -24 -6 -27 -25 -59 -22 -71 7 -4 9 -10 60 -12 113 l-6 96 64 12 c34 6
64 9 66 7 2 -1 6 -60 10 -129 5 -97 9 -127 20 -127 9 0 13 16 13 58 0 34 8 74
20 99 19 43 69 83 103 83 9 0 17 5 17 10 0 6 -9 10 -20 10 -39 0 -90 -29 -110
-62 l-20 -33 -1 45 c-1 25 -1 50 0 56 2 18 -26 25 -55 14 -14 -6 -43 -10 -64
-10 l-39 0 -3 62 c-3 52 -6 63 -22 66 -17 4 -18 -1 -14 -67z"/>
<path d="M704 509 c4 -52 11 -111 17 -131 17 -66 72 -60 109 12 11 22 21 40
23 40 1 0 0 -21 -2 -47 -2 -35 -11 -57 -32 -80 -51 -59 -76 -203 -46 -263 10
-20 20 -25 52 -25 50 0 53 9 54 181 1 145 0 143 76 182 29 15 34 21 20 22 -12
0 -38 -9 -59 -20 l-39 -19 5 84 c5 80 1 95 -26 95 -2 0 -8 -25 -15 -56 -8 -34
-24 -68 -40 -87 l-28 -31 -17 27 c-11 17 -20 57 -24 113 -5 62 -11 89 -21 92
-12 4 -13 -11 -7 -89z m148 -434 c-9 -47 -39 -55 -60 -15 -22 43 5 178 46 223
16 18 17 15 20 -75 1 -51 -1 -111 -6 -133z"/>
<path d="M2444 584 c3 -9 9 -74 13 -145 5 -98 9 -129 20 -129 9 0 13 16 13 58
0 34 8 74 20 99 19 43 69 83 103 83 9 0 17 5 17 10 0 6 -9 10 -20 10 -39 0
-90 -29 -110 -62 l-20 -33 0 37 c0 44 -15 88 -31 88 -6 0 -8 -7 -5 -16z"/>
<path d="M259 574 c-3 -50 4 -201 11 -220 5 -13 21 -29 35 -36 22 -10 29 -8
50 12 30 28 55 99 55 157 0 39 -3 44 -38 62 -44 22 -112 37 -113 25z m85 -44
c15 -5 31 -20 37 -33 24 -53 -39 -167 -76 -137 -11 9 -15 32 -15 80 0 100 5
109 54 90z"/>
<path d="M2277 542 c-32 -33 -47 -79 -47 -143 0 -56 25 -83 77 -83 30 0 43 9
89 56 60 62 76 100 18 42 -65 -65 -117 -87 -142 -62 -9 9 -2 20 29 46 41 35
79 97 79 130 0 48 -62 57 -103 14z m73 -17 c0 -36 -71 -128 -86 -112 -7 7 14
74 34 105 16 25 52 30 52 7z"/>
</g>
</svg>
